<svg width="24" height="24" viewBox="0 0 24 24" fill="none" xmlns="http://www.w3.org/2000/svg">
<path opacity="0.2" d="M18.75 14.3343L15.3 17.7843C15.206 17.8723 15.092 17.9361 14.968 17.9704C14.8439 18.0047 14.7133 18.0084 14.5875 17.9812L9.15 16.6218C9.05067 16.5941 8.95812 16.5463 8.87812 16.4812L3.75 12.4781L6.80625 6.73121L11.6156 5.32496C11.7865 5.27595 11.9693 5.28924 12.1312 5.36246L15.375 6.83433H13.4344C13.337 6.83399 13.2405 6.85286 13.1504 6.88986C13.0603 6.92686 12.9784 6.98126 12.9094 7.04996L9.23438 10.7156C9.15934 10.7926 9.10152 10.8847 9.06474 10.9858C9.02797 11.0868 9.01308 11.1945 9.02105 11.3018C9.02903 11.409 9.05969 11.5133 9.11101 11.6078C9.16233 11.7023 9.23314 11.7849 9.31875 11.85L9.825 12.2343C10.3449 12.6224 10.9763 12.832 11.625 12.832C12.2737 12.832 12.9051 12.6224 13.425 12.2343L14.625 11.3343L18.75 14.3343Z" fill="white"/>
<path d="M22.5656 11.4188L20.25 12.5719L17.25 6.83444L19.5938 5.66257C19.7679 5.57378 19.9701 5.55747 20.1563 5.61718C20.3425 5.67689 20.4975 5.80778 20.5875 5.98132L22.8938 10.3969C22.9405 10.4853 22.9691 10.5822 22.9779 10.6818C22.9867 10.7814 22.9755 10.8818 22.9449 10.977C22.9143 11.0722 22.865 11.1603 22.7999 11.2362C22.7348 11.3121 22.6551 11.3742 22.5656 11.4188V11.4188Z" stroke="white" stroke-linecap="round" stroke-linejoin="round"/>
<path d="M3.74984 12.4781L1.43422 11.3156C1.34505 11.2719 1.26559 11.2107 1.20055 11.1357C1.13551 11.0607 1.08622 10.9734 1.05561 10.8789C1.02499 10.7844 1.01369 10.6848 1.02236 10.5859C1.03103 10.487 1.05951 10.3908 1.10609 10.3031L3.41234 5.88749C3.50256 5.71408 3.65691 5.58275 3.84253 5.52146C4.02814 5.46017 4.23035 5.47377 4.40609 5.55937L6.74984 6.73124L3.74984 12.4781Z" stroke="white" stroke-linecap="round" stroke-linejoin="round"/>
<path d="M20.25 12.5718L18.75 14.3343L15.3 17.7843C15.206 17.8722 15.092 17.936 14.968 17.9703C14.8439 18.0046 14.7133 18.0083 14.5875 17.9812L9.15 16.6218C9.05067 16.5941 8.95812 16.5462 8.87812 16.4812L3.75 12.478" stroke="white" stroke-linecap="round" stroke-linejoin="round"/>
<path d="M18.7496 14.3345L14.6246 11.3345L13.4246 12.2345C12.9047 12.6225 12.2733 12.8321 11.6246 12.8321C10.9759 12.8321 10.3445 12.6225 9.82459 12.2345L9.31834 11.8501C9.23274 11.785 9.16193 11.7025 9.11061 11.608C9.05929 11.5135 9.02862 11.4092 9.02065 11.3019C9.01267 11.1947 9.02756 11.087 9.06434 10.9859C9.10111 10.8849 9.15893 10.7928 9.23397 10.7157L12.909 7.0501C12.978 6.98141 13.0599 6.927 13.15 6.89C13.2401 6.853 13.3366 6.83414 13.434 6.83448H17.2496" stroke="white" stroke-linecap="round" stroke-linejoin="round"/>
<path d="M6.80664 6.73121L11.616 5.32496C11.7869 5.27595 11.9696 5.28924 12.1316 5.36246L15.3754 6.83433" stroke="white" stroke-linecap="round" stroke-linejoin="round"/>
<path d="M10.5 19.9594L7.67813 19.2469C7.56313 19.2209 7.45666 19.166 7.36875 19.0875L5.25 17.25" stroke="white" stroke-linecap="round" stroke-linejoin="round"/>
</svg>
