<svg width="24" height="24" viewBox="0 0 24 24" fill="none" xmlns="http://www.w3.org/2000/svg">
<path d="M19.6213 15.7827C19.0348 15.7827 18.4777 16.0124 18.0574 16.4278C17.6371 16.848 17.4026 17.3954 17.4026 17.9818C17.4026 18.5683 17.6323 19.1156 18.0574 19.5359C18.4826 19.9513 19.0348 20.181 19.6213 20.181C20.8235 20.181 21.8009 19.1938 21.8009 17.9818C21.8009 16.7699 20.8235 15.7827 19.6213 15.7827ZM19.6213 19.2036C18.9469 19.2036 18.38 18.6465 18.38 17.9818C18.38 17.3172 18.9469 16.7601 19.6213 16.7601C20.2859 16.7601 20.8235 17.3074 20.8235 17.9818C20.8235 18.6562 20.2859 19.2036 19.6213 19.2036ZM20.1881 8.45709C20.1002 8.37401 19.9829 8.33003 19.8607 8.33003H17.3537C17.0849 8.33003 16.865 8.54994 16.865 8.81872V12.8261C16.865 13.0948 17.0849 13.3148 17.3537 13.3148H21.3317C21.6005 13.3148 21.8204 13.0948 21.8204 12.8261V10.1431C21.8204 10.0063 21.7618 9.87431 21.6591 9.78146L20.1881 8.45709ZM20.843 12.3374H17.8424V9.30254H19.6701L20.843 10.3581V12.3374ZM7.68723 15.7827C7.10079 15.7827 6.54368 16.0124 6.1234 16.4278C5.70312 16.848 5.46854 17.3954 5.46854 17.9818C5.46854 18.5683 5.69823 19.1156 6.1234 19.5359C6.54856 19.9513 7.10079 20.181 7.68723 20.181C8.88943 20.181 9.86683 19.1938 9.86683 17.9818C9.86683 16.7699 8.88943 15.7827 7.68723 15.7827ZM7.68723 19.2036C7.01283 19.2036 6.44594 18.6465 6.44594 17.9818C6.44594 17.3172 7.01283 16.7601 7.68723 16.7601C8.35186 16.7601 8.88943 17.3074 8.88943 17.9818C8.88943 18.6562 8.35186 19.2036 7.68723 19.2036ZM4.42761 16.3838H3.44533V15.0838C3.44533 14.8151 3.22541 14.5951 2.95663 14.5951C2.68784 14.5951 2.46793 14.8151 2.46793 15.0838V16.8725C2.46793 17.1413 2.68784 17.3612 2.95663 17.3612H4.42761C4.6964 17.3612 4.91631 17.1413 4.91631 16.8725C4.91631 16.6037 4.6964 16.3838 4.42761 16.3838ZM6.90531 13.7204C6.90531 13.4516 6.6854 13.2317 6.41662 13.2317H0.488699C0.219914 13.2317 0 13.4516 0 13.7204C0 13.9892 0.219914 14.2091 0.488699 14.2091H6.41662C6.6854 14.2091 6.90531 13.994 6.90531 13.7204ZM1.48076 11.9562L7.40867 11.9904C7.67746 11.9904 7.89737 11.7754 7.90226 11.5066C7.90715 11.2329 7.68723 11.013 7.41845 11.013L1.49053 10.9788C1.48564 10.9788 1.48564 10.9788 1.48564 10.9788C1.21686 10.9788 0.996946 11.1938 0.996946 11.4626C0.992059 11.7363 1.21197 11.9562 1.48076 11.9562ZM2.4777 9.73748H8.40562C8.6744 9.73748 8.89432 9.51756 8.89432 9.24878C8.89432 8.97999 8.6744 8.76008 8.40562 8.76008H2.4777C2.20892 8.76008 1.989 8.97999 1.989 9.24878C1.989 9.51756 2.20892 9.73748 2.4777 9.73748ZM23.8192 9.07773L20.3201 6.17975C20.2321 6.10645 20.1246 6.06735 20.0073 6.06735H15.8925V4.30803C15.8925 4.03925 15.6726 3.81934 15.4038 3.81934H2.95663C2.68784 3.81934 2.46793 4.03925 2.46793 4.30803V7.88531C2.46793 8.1541 2.68784 8.37401 2.95663 8.37401C3.22541 8.37401 3.44533 8.1541 3.44533 7.88531V4.79673H14.92V16.3838H10.9126C10.6439 16.3838 10.4239 16.6037 10.4239 16.8725C10.4239 17.1413 10.6439 17.3612 10.9126 17.3612H16.8797C17.1484 17.3612 17.3684 17.1413 17.3684 16.8725C17.3684 16.6037 17.1484 16.3838 16.8797 16.3838H15.8974V7.04475H19.8363L23.0226 9.68372L22.9884 16.374H22.4801C22.2114 16.374 21.9914 16.5939 21.9914 16.8627C21.9914 17.1315 22.2114 17.3514 22.4801 17.3514H23.4722C23.741 17.3514 23.9609 17.1364 23.9609 16.8676L24 9.45892C23.9951 9.31231 23.9316 9.17059 23.8192 9.07773Z" fill="white"/>
</svg>
